<?xml version="1.0" encoding="utf-8"?>
<!-- Generator: Adobe Illustrator 24.3.0, SVG Export Plug-In . SVG Version: 6.00 Build 0)  -->
<svg version="1.1" id="Layer_1" xmlns="http://www.w3.org/2000/svg" xmlns:xlink="http://www.w3.org/1999/xlink" x="0px" y="0px"
	 viewBox="0 0 1052 591" style="enable-background:new 0 0 1052 591;" xml:space="preserve">
<style type="text/css">
	.st0{fill:none;stroke:#000000;}
	.st1{fill:#231F20;}
	.st2{fill:#061836;}
	.st3{fill:none;}
	.st4{font-family:'MyriadPro-Regular';}
	.st5{font-size:18px;}
	.st6{fill:#FFFFFF;}
</style>
<g transform="translate(0,440)">
	<path class="st0" d="M135.4,60v-5.5h800V60"/>
	<g transform="translate(80.5,0)">
		<line class="st0" x1="54.9" y1="54" x2="54.9" y2="60"/>
	</g>
	<g transform="translate(142.03846153846155,0)">
		<line class="st0" x1="54.9" y1="54" x2="54.9" y2="60"/>
	</g>
	<g transform="translate(203.5769230769231,0)">
		<line class="st0" x1="54.9" y1="54" x2="54.9" y2="60"/>
	</g>
	<g transform="translate(265.11538461538464,0)">
		<line class="st0" x1="54.9" y1="54" x2="54.9" y2="60"/>
	</g>
	<g transform="translate(326.6538461538462,0)">
		<line class="st0" x1="54.9" y1="54" x2="54.9" y2="60"/>
	</g>
	<g transform="translate(388.1923076923077,0)">
		<line class="st0" x1="54.9" y1="54" x2="54.9" y2="60"/>
	</g>
	<g transform="translate(449.7307692307693,0)">
		<line class="st0" x1="54.9" y1="54" x2="54.9" y2="60"/>
	</g>
	<g transform="translate(511.2692307692307,0)">
		<line class="st0" x1="54.9" y1="54" x2="54.9" y2="60"/>
	</g>
	<g transform="translate(572.8076923076923,0)">
		<line class="st0" x1="54.9" y1="54" x2="54.9" y2="60"/>
	</g>
	<g transform="translate(634.3461538461538,0)">
		<line class="st0" x1="54.9" y1="54" x2="54.9" y2="60"/>
	</g>
	<g transform="translate(695.8846153846154,0)">
		<line class="st0" x1="54.9" y1="54" x2="54.9" y2="60"/>
	</g>
	<g transform="translate(757.4230769230769,0)">
		<line class="st0" x1="54.9" y1="54" x2="54.9" y2="60"/>
	</g>
	<g transform="translate(818.9615384615386,0)">
		<line class="st0" x1="54.9" y1="54" x2="54.9" y2="60"/>
	</g>
	<g transform="translate(880.5,0)">
		<line class="st0" x1="54.9" y1="54" x2="54.9" y2="60"/>
	</g>
</g>
<g transform="translate(80,0)">
</g>
<g>
	<line class="st1" x1="134.9" y1="94" x2="134.9" y2="494"/>
	<line class="st1" x1="196.4" y1="94" x2="196.4" y2="494"/>
	<line class="st1" x1="258" y1="94" x2="258" y2="494"/>
	<line class="st1" x1="319.5" y1="94" x2="319.5" y2="494"/>
	<line class="st1" x1="381.1" y1="94" x2="381.1" y2="494"/>
	<line class="st1" x1="442.6" y1="94" x2="442.6" y2="494"/>
	<line class="st1" x1="504.1" y1="94" x2="504.1" y2="494"/>
	<line class="st1" x1="565.7" y1="94" x2="565.7" y2="494"/>
	<line class="st1" x1="627.2" y1="94" x2="627.2" y2="494"/>
	<line class="st1" x1="688.7" y1="94" x2="688.7" y2="494"/>
	<line class="st1" x1="750.3" y1="94" x2="750.3" y2="494"/>
	<line class="st1" x1="811.8" y1="94" x2="811.8" y2="494"/>
	<line class="st1" x1="873.4" y1="94" x2="873.4" y2="494"/>
	<line class="st1" x1="934.9" y1="94" x2="934.9" y2="494"/>
</g>
<rect x="134.9" y="103.7" class="st2" width="792.6" height="39"/>
<rect x="134.9" y="152.5" class="st2" width="759.5" height="39"/>
<rect x="134.9" y="201.3" class="st2" width="639.8" height="39"/>
<rect x="134.9" y="250.1" class="st2" width="634.1" height="39"/>
<rect x="134.9" y="298.9" class="st2" width="628.1" height="39"/>
<rect x="134.9" y="347.6" class="st2" width="441.1" height="39"/>
<rect x="134.9" y="396.4" class="st2" width="426.3" height="39"/>
<rect x="134.9" y="445.2" class="st2" width="356" height="39"/>
<rect x="47.4" y="115.5" class="st3" width="74" height="15.5"/>
<text transform="matrix(1 0 0 1 48.7627 128.2725)" class="st4 st5">Columbia</text>
<rect x="47.4" y="164.3" class="st3" width="74" height="15.5"/>
<text transform="matrix(1 0 0 1 89.7124 177.053)" class="st4 st5">Yale</text>
<rect x="47.4" y="213.1" class="st3" width="74" height="15.5"/>
<text transform="matrix(1 0 0 1 82.8179 225.8335)" class="st4 st5">Penn</text>
<rect x="47.4" y="254.1" class="st3" width="74" height="15.5"/>
<text transform="matrix(1 0 0 1 48.8164 266.864)" class="st4 st5">Princeton</text>
<rect x="47.4" y="306.7" class="st3" width="74" height="15.5"/>
<text transform="matrix(1 0 0 1 67.6807 319.5042)" class="st4 st5">Cornell</text>
<rect x="47.4" y="359.4" class="st3" width="74" height="15.5"/>
<text transform="matrix(1 0 0 1 61.7222 372.1749)" class="st4 st5">Harvard</text>
<rect x="33.4" y="412.1" class="st3" width="87.5" height="15.3"/>
<text transform="matrix(1 0 0 1 37.6497 424.8452)" class="st4 st5">Dartmouth</text>
<rect x="47.3" y="457.9" class="st3" width="74" height="15.5"/>
<text transform="matrix(1 0 0 1 72.4946 470.7134)" class="st4 st5">Brown</text>
<text transform="matrix(1 0 0 1 253.8528 521)" class="st4 st5">1</text>
<text transform="matrix(1 0 0 1 375.7661 521)" class="st4 st5">2</text>
<text transform="matrix(1 0 0 1 500.0131 521)" class="st4 st5">3</text>
<text transform="matrix(1 0 0 1 623.0933 521)" class="st4 st5">4</text>
<text transform="matrix(1 0 0 1 746.1633 522)" class="st4 st5">5</text>
<text transform="matrix(1 0 0 1 869.2433 521)" class="st4 st5">6</text>
<text transform="matrix(1 0 0 1 650.8264 127.2427)" class="st6 st4 st5">Men’s spending is 205% of women’s</text>
<text transform="matrix(1 0 0 1 844.8689 177.2505)" class="st6 st4 st5">178%</text>
<text transform="matrix(1 0 0 1 721.0428 225.8335)" class="st6 st4 st5">183%</text>
<text transform="matrix(1 0 0 1 711.8378 275.4711)" class="st6 st4 st5">156%</text>
<text transform="matrix(1 0 0 1 704.0068 324.6202)" class="st6 st4 st5">161%</text>
<text transform="matrix(1 0 0 1 525.7004 372.1456)" class="st6 st4 st5">139%</text>
<text transform="matrix(1 0 0 1 505.5778 421.1325)" class="st6 st4 st5">149%</text>
<text transform="matrix(1 0 0 1 438.9875 470.7141)" class="st6 st4 st5">140%</text>
<text transform="matrix(1 0 0 1 130.7661 521)" class="st4 st5">0</text>
<text transform="matrix(1 0 0 1 498.7159 550.1973)" class="st4 st5">Millions of Dollars</text>
</svg>
